<?xml version="1.0" encoding="UTF-8"?>
<svg width="232px" height="64px" viewBox="0 0 232 64" version="1.1" xmlns="http://www.w3.org/2000/svg" xmlns:xlink="http://www.w3.org/1999/xlink">
    <!-- Generator: Sketch 54.1 (76490) - https://sketchapp.com -->
    <title>logo/app-sales-central stacked</title>
    <desc>Created with Sketch.</desc>
    <defs>
        <filter x="-8.9%" y="-30.4%" width="113.2%" height="160.7%" filterUnits="objectBoundingBox" id="filter-1">
            <feOffset dx="0" dy="2" in="SourceAlpha" result="shadowOffsetOuter1"></feOffset>
            <feGaussianBlur stdDeviation="1" in="shadowOffsetOuter1" result="shadowBlurOuter1"></feGaussianBlur>
            <feColorMatrix values="0 0 0 0 0   0 0 0 0 0   0 0 0 0 0  0 0 0 0.5 0" type="matrix" in="shadowBlurOuter1" result="shadowMatrixOuter1"></feColorMatrix>
            <feMerge>
                <feMergeNode in="shadowMatrixOuter1"></feMergeNode>
                <feMergeNode in="SourceGraphic"></feMergeNode>
            </feMerge>
        </filter>
        <polygon id="path-2" points="0.8 0.472919997 1.51136 0.472919997 1.51136 1.27292 0.8 1.27292"></polygon>
        <polygon id="path-4" points="0.33568 0.04248 41.45248 0.04248 41.45248 22.4 0.33568 22.4"></polygon>
        <polygon id="path-6" points="0 0.786615644 36.61008 0.786615644 36.61008 31.31752 0 31.31752"></polygon>
    </defs>
    <g id="logo/app-sales-central-stacked" stroke="none" stroke-width="1" fill="none" fill-rule="evenodd">
        <g filter="url(#filter-1)" transform="translate(8.000000, 4.000000)">
            <g id="logo/brand-sales-central">
                <g transform="translate(1.600000, 0.800000)">
                    <path d="M23.3256,15.84608 L23.26,15.73488 L23.2568,15.72928 L23.3176,15.83328 L23.2,15.87168 C18.3744,17.46368 15.132,22.01888 15.132,27.20768 C15.132,28.42928 15.3288,30.09488 15.7048,31.28608 L24.5552,15.51248 C24.1568,15.59808 23.7456,15.70768 23.3256,15.84608" id="Fill-1" fill="#FFE673"></path>
                    <path d="M42.78424,31.51288 L42.80024,31.51288 L42.81864,31.43768 C43.18024,30.01048 43.36424,28.58728 43.36424,27.20728 C43.36424,20.24888 39.02344,13.89848 32.63144,11.40568 L30.09544,15.79848 C34.93704,17.32168 38.36424,22.01688 38.36424,27.20728 C38.36424,28.45208 38.15944,29.69608 37.76744,30.91128 L40.82984,36.10968 L40.87544,36.10968 C41.73784,34.67208 42.38024,33.12728 42.78424,31.51288" id="Fill-3" fill="#00A14D"></path>
                    <path d="M34.52408,36.29808 C32.36088,38.24368 29.60168,39.31568 26.74808,39.31568 C23.88568,39.31568 21.12008,38.23648 18.95368,36.27888 L12.77288,36.27168 C13.06728,36.73568 13.37928,37.19328 13.72728,37.63408 C14.43368,38.52848 15.22168,39.31808 16.06248,40.02128 L16.06648,40.01488 C18.94728,42.50528 22.67208,44.01568 26.74808,44.01568 C30.79208,44.01568 34.48808,42.52608 37.35928,40.06928 L35.13928,36.29888 L34.52408,36.29808 Z" id="Fill-5" fill="#3FACE4"></path>
                    <path d="M38.36392,27.20744 C38.36392,22.01704 34.93752,17.32184 30.09512,15.79864 L29.47112,16.87944 L37.76792,30.91064 C38.15912,29.69544 38.36392,28.45224 38.36392,27.20744" id="Fill-7" fill="#48BD7F"></path>
                    <path d="M26.74784,39.31568 C29.60144,39.31568 32.36064,38.24368 34.52384,36.29808 L34.48784,36.29808 L18.95344,36.27888 C21.11984,38.23648 23.88544,39.31568 26.74784,39.31568" id="Fill-9" fill="#78C0E5"></path>
                    <path d="M32.63144,11.40552 C39.02344,13.89912 43.36424,20.24952 43.36424,27.20712 C43.36424,28.58792 43.18024,30.01032 42.81864,31.43752 L42.79944,31.51272 L42.78424,31.51272 C42.38024,33.12712 41.73784,34.67192 40.87544,36.10952 L40.82984,36.10952 L43.36104,40.40872 C44.36504,39.09992 45.22264,37.67912 45.90184,36.17752 C46.59624,34.64632 47.10904,33.03992 47.42744,31.40232 L47.43304,31.36952 C47.56504,30.69032 47.66424,30.00792 47.72984,29.33832 L47.73784,29.20632 C47.76184,28.95512 47.79064,28.62312 47.80584,28.28712 C47.82424,27.92552 47.83304,27.56232 47.83304,27.20712 C47.83304,26.76472 47.81624,26.29672 47.77784,25.73432 C47.76984,25.61352 47.76104,25.49272 47.75064,25.37192 C47.70344,24.81112 47.65304,24.35352 47.58904,23.93352 L47.58664,23.90792 C47.52344,23.49912 47.43944,23.05432 47.32344,22.52392 C47.29784,22.40952 47.27224,22.29592 47.24584,22.18312 C47.12184,21.65512 47.00584,21.21992 46.88184,20.81512 C46.75304,20.39672 46.60344,19.96632 46.42024,19.48392 C46.38104,19.37912 46.34024,19.27432 46.29864,19.17032 C46.10104,18.67272 45.92584,18.26552 45.74584,17.88712 C45.56104,17.49992 45.35304,17.09992 45.10264,16.64952 L45.05944,16.57192 C45.02184,16.50552 44.98504,16.43912 44.94664,16.37272 C44.67944,15.90872 44.44744,15.53272 44.21704,15.18712 L44.20344,15.16312 C43.97944,14.83112 43.71624,14.46392 43.40744,14.06072 C43.34744,13.98072 43.28584,13.90152 43.22424,13.82312 C42.65864,13.10152 42.03464,12.40552 41.37144,11.75512 C41.30344,11.68872 41.23544,11.62232 41.16664,11.55592 C40.49944,10.91992 39.78184,10.31832 39.03144,9.77032 L38.80984,9.60952 C38.42904,9.33832 38.03624,9.07832 37.64344,8.83672 C37.25464,8.59752 36.84424,8.36392 36.42584,8.14232 L36.37864,8.11752 C36.31464,8.08392 36.25144,8.05112 36.18744,8.01832 C35.75624,7.79752 35.31144,7.58312 34.93304,7.41912 L32.63144,11.40552 Z" id="Fill-11" fill="#008833"></path>
                    <path d="M16.06664,40.01488 L16.06264,40.02128 C15.22104,39.31808 14.43304,38.52848 13.72744,37.63408 C13.37944,37.19328 13.06664,36.73568 12.77304,36.27168 L10.11304,36.26848 L10.12104,36.25408 L7.62664,36.24928 C8.14904,37.39008 8.77224,38.48928 9.48184,39.51808 L9.49704,39.54048 C9.73944,39.89168 9.99304,40.23488 10.24984,40.56288 C11.27064,41.86768 12.44264,43.05328 13.73304,44.08528 C15.07224,45.15648 16.53464,46.05968 18.08184,46.77008 L18.17784,46.81488 C18.69144,47.04768 19.20744,47.25808 19.70984,47.43888 L19.80744,47.47248 C20.83144,47.83648 21.90584,48.12288 23.00104,48.32368 L23.07544,48.33728 C23.13544,48.34848 23.19624,48.35968 23.25624,48.37008 C23.77544,48.45808 24.30104,48.52688 24.81864,48.57488 C24.87464,48.58048 24.93144,48.58368 24.98664,48.58768 L25.09464,48.59648 C25.70664,48.64448 26.24824,48.66768 26.74824,48.66768 C27.25224,48.66768 27.79544,48.64448 28.40904,48.59568 L28.51544,48.58768 C28.57064,48.58368 28.62664,48.57968 28.68184,48.57408 C29.19784,48.52688 29.72584,48.45728 30.24984,48.36768 L30.50744,48.32128 C31.08664,48.21488 31.60584,48.09968 32.09544,47.97008 C32.63624,47.82528 33.16344,47.66048 33.72184,47.46128 L33.80504,47.43168 C34.30504,47.25168 34.82264,47.03968 35.34424,46.80208 L35.44664,46.75568 C36.97224,46.05088 38.41384,45.15808 39.73544,44.10368 L37.35944,40.06928 C34.48824,42.52608 30.79224,44.01568 26.74824,44.01568 C22.67144,44.01568 18.94744,42.50528 16.06664,40.01488" id="Fill-13" fill="#0084D8"></path>
                    <path d="M10.13224,27.20744 C10.13224,20.22424 14.26424,14.05384 20.65944,11.48664 L20.73944,11.45464 L20.74584,11.46424 C22.24584,10.86504 23.81544,10.48664 25.41704,10.33304 L25.43864,10.36904 L25.76584,10.34584 C26.27384,10.30904 26.82024,10.29064 27.32744,10.32504 C27.39864,10.32984 27.46984,10.33464 27.54184,10.33864 L30.03784,6.01544 C29.55544,5.94024 29.06904,5.87544 28.57544,5.83224 C28.52424,5.82744 28.47304,5.82424 28.42264,5.82024 L28.35944,5.81544 C27.76024,5.76904 27.23304,5.74664 26.74824,5.74664 C26.42744,5.74664 26.09144,5.75544 25.74904,5.77304 C25.57144,5.78104 25.39624,5.79464 25.22024,5.80824 L24.97624,5.82744 C24.91864,5.83144 24.86184,5.83544 24.80424,5.84104 C24.55304,5.86424 24.28664,5.89464 23.96584,5.93864 L23.89544,5.94744 C23.60424,5.98744 23.30184,6.03624 22.99624,6.09224 C21.41624,6.38104 19.87464,6.85624 18.40984,7.49864 L18.43944,7.54984 L18.28584,7.54984 C17.83304,7.75224 17.38184,7.97384 16.94344,8.20824 C16.06024,8.68264 15.20824,9.22104 14.40184,9.81464 L14.36184,9.84424 C13.58024,10.42264 12.82744,11.06504 12.12584,11.75384 L12.04744,11.82984 C11.69064,12.18264 11.35064,12.54184 11.03784,12.89784 C10.73464,13.24344 10.44424,13.59864 10.13944,13.99384 L10.03144,14.13464 C9.72584,14.53864 9.45384,14.92264 9.20024,15.30824 L9.17384,15.35064 C8.94264,15.70504 8.71384,16.08344 8.47384,16.50664 L8.44344,16.56024 C8.41384,16.61224 8.38344,16.66504 8.35384,16.71864 C8.10904,17.16264 7.89784,17.57464 7.70904,17.97784 L7.67864,18.04584 C7.50264,18.42504 7.33304,18.82344 7.16104,19.26424 L7.13784,19.32344 C7.10904,19.39624 7.08104,19.46904 7.05304,19.54184 C6.87224,20.02424 6.72264,20.45944 6.59784,20.87304 L6.57464,20.95624 C6.45624,21.35144 6.34664,21.76984 6.23784,22.23384 C6.21224,22.34504 6.18664,22.45624 6.16264,22.56744 C6.05064,23.08184 5.96584,23.53784 5.90264,23.96104 L5.89544,24.02344 C5.83544,24.43144 5.78584,24.87704 5.74344,25.38664 C5.73304,25.50824 5.72424,25.62984 5.71624,25.75304 C5.68024,26.31224 5.66264,26.77464 5.66264,27.20744 C5.66264,27.55224 5.67144,27.91064 5.68904,28.27304 C5.70344,28.57064 5.72824,28.86344 5.75144,29.13464 L5.75784,29.21624 C5.76024,29.24584 5.76184,29.27464 5.76504,29.30424 C5.82504,29.93944 5.91864,30.63144 6.04184,31.28664 L10.63544,31.28664 C10.30424,29.92024 10.13224,28.52744 10.13224,27.20744" id="Fill-15" fill="#FEBE0D"></path>
                    <path d="M15.58736,31.28632 L15.70416,31.28632 C15.32896,30.09432 15.13216,28.42872 15.13216,27.20712 C15.13216,22.01912 18.37456,17.46392 23.20016,15.87192 L23.31776,15.83352 L23.25696,15.72872 L23.26016,15.73512 L23.32576,15.84632 C23.74576,15.70792 24.15696,15.59832 24.55456,15.51192 L27.54176,10.33832 C27.47056,10.33512 27.39856,10.33032 27.32736,10.32552 C26.82016,10.29032 26.27376,10.30872 25.76576,10.34552 L25.43856,10.36952 L25.41776,10.33352 C23.81616,10.48632 22.24576,10.86472 20.74576,11.46472 L20.73936,11.45432 L20.65936,11.48632 C14.26416,14.05352 10.13216,20.22472 10.13216,27.20712 C10.13216,28.52712 10.30416,29.91992 10.63616,31.28632 L15.46176,31.28632 L15.58736,31.28632 Z" id="Fill-17" fill="#FED61D"></path>
                    <path d="M42.41392,48.25824 L42.41232,48.25664 C42.38912,48.27424 42.36672,48.29344 42.34352,48.31184 L42.41392,48.25824 Z" id="Fill-19" fill="#0469A3"></path>
                    <g id="Group-23" transform="translate(0.000000, 30.413600)">
                        <mask id="mask-3" fill="white">
                            <use xlink:href="#path-2"></use>
                        </mask>
                        <g id="Clip-22"></g>
                        <path d="M1.10256,0.87272 L1.12016,0.87272 C1.11536,0.83592 1.11056,0.91032 1.10496,0.87272 L1.10256,0.87272 Z" id="Fill-21" fill="#0469A3" mask="url(#mask-3)"></path>
                    </g>
                    <g id="Group-26" transform="translate(0.800000, 31.213600)">
                        <mask id="mask-5" fill="white">
                            <use xlink:href="#path-4"></use>
                        </mask>
                        <g id="Clip-25"></g>
                        <path d="M39.03968,13.06648 L38.93568,12.89048 C37.61408,13.94408 36.17248,14.83688 34.64688,15.54168 L34.54448,15.58888 C34.02288,15.82648 33.50528,16.03768 33.00528,16.21848 L32.92208,16.24728 C32.36288,16.44648 31.83648,16.61208 31.29488,16.75608 C30.80608,16.88648 30.28688,17.00088 29.70688,17.10728 L29.45008,17.15448 C28.92528,17.24328 28.39808,17.31288 27.88208,17.36088 C27.82608,17.36648 27.77088,17.36968 27.71488,17.37368 L27.60928,17.38248 C26.99568,17.43048 26.45248,17.45448 25.94768,17.45448 C25.44768,17.45448 24.90688,17.43128 24.29408,17.38248 L24.18688,17.37448 C24.13088,17.37048 24.07488,17.36648 24.01888,17.36088 C23.50128,17.31368 22.97488,17.24408 22.45648,17.15608 C22.39568,17.14568 22.33568,17.13448 22.27568,17.12328 L22.20128,17.10968 C21.10608,16.90888 20.03088,16.62248 19.00688,16.25848 L18.91008,16.22488 C18.40688,16.04408 17.89168,15.83368 17.37808,15.60088 L17.28128,15.55608 C15.73488,14.84568 14.27248,13.94248 12.93328,12.87208 C11.64288,11.83928 10.47088,10.65448 9.45008,9.34968 C9.19248,9.02168 8.93968,8.67768 8.69648,8.32648 L8.68208,8.30488 C7.97248,7.27528 7.34848,6.17688 6.82688,5.03608 L9.32128,5.04088 L9.31328,5.05448 L11.97328,5.05768 L18.15328,5.06568 L33.68848,5.08408 L33.72368,5.08408 L34.33888,5.08568 L31.39088,0.07288 L20.37088,0.04248 L20.34288,0.08968 L20.32768,0.11688 L14.54048,0.07288 L14.66208,0.07288 L9.83568,0.07288 L5.24128,0.07288 C5.24608,0.09528 5.24848,0.05048 5.25248,0.07288 L0.33568,0.07288 C0.59168,1.68488 0.99408,3.42968 1.53728,4.96088 C2.69728,8.23208 4.45808,11.19928 6.77088,13.78008 L6.77168,13.84168 L6.82688,13.84168 C7.92528,15.06008 9.13648,16.17528 10.43168,17.16088 C10.71488,17.37608 11.01648,17.59368 11.35488,17.82888 C11.42048,17.87368 11.48688,17.91848 11.55408,17.96328 L11.66848,18.03928 C11.88528,18.18488 12.10368,18.32808 12.32448,18.46728 C12.44608,18.54408 12.56848,18.61848 12.69008,18.69288 C12.90688,18.82408 13.12688,18.95208 13.34688,19.07768 L13.46528,19.14408 C13.54528,19.18968 13.62448,19.23448 13.70528,19.27848 C13.96928,19.42248 14.23648,19.56168 14.50608,19.69608 L14.60048,19.74488 C14.64528,19.76728 14.69008,19.79128 14.73488,19.81288 C15.06448,19.97368 15.41648,20.13608 15.78208,20.29528 C15.84768,20.32328 15.91328,20.34968 15.97968,20.37688 L16.08608,20.42008 C16.34448,20.52888 16.60528,20.63448 16.86848,20.73448 C16.99888,20.78408 17.13008,20.83128 17.26128,20.87928 C17.50448,20.96648 17.74848,21.05048 17.99408,21.13208 L18.07088,21.15608 C18.17888,21.19128 18.28768,21.22648 18.39648,21.26088 C18.66608,21.34408 18.93808,21.42168 19.21088,21.49608 L19.33408,21.53048 C19.40048,21.54968 19.46768,21.56808 19.53488,21.58568 C19.92688,21.68728 20.31328,21.77768 20.68368,21.85528 C20.72528,21.86408 20.76848,21.87208 20.81008,21.88008 L20.90688,21.89848 C21.23248,21.96328 21.55328,22.02168 21.85888,22.07128 C21.96208,22.08728 22.06608,22.10248 22.16928,22.11688 L22.25968,22.12968 C22.52768,22.16888 22.79648,22.20408 23.06688,22.23368 C23.21008,22.25048 23.35248,22.26568 23.49648,22.27928 C23.77568,22.30568 24.05648,22.32728 24.33728,22.34408 L24.45408,22.35208 C24.54208,22.35848 24.63088,22.36488 24.72048,22.36888 C25.16768,22.38968 25.56928,22.40008 25.94768,22.40008 C26.32688,22.40008 26.72928,22.38968 27.17568,22.36888 C27.25648,22.36488 27.33648,22.35928 27.41648,22.35368 L27.56608,22.34408 C27.84448,22.32648 28.12288,22.30568 28.39888,22.27928 C28.54688,22.26568 28.69408,22.24968 28.83968,22.23288 C29.10288,22.20328 29.36448,22.16888 29.62528,22.13128 L29.70688,22.11928 C29.82288,22.10248 29.93968,22.08648 30.05488,22.06728 C30.34288,22.02088 30.63008,21.96728 30.91488,21.91128 L31.04208,21.88728 C31.10608,21.87528 31.17088,21.86408 31.23408,21.85048 C31.61008,21.77128 31.99008,21.68168 32.36448,21.58488 C32.43888,21.56568 32.51328,21.54408 32.58768,21.52328 L32.72928,21.48328 C32.98528,21.41288 33.24048,21.34008 33.49248,21.26248 C33.62448,21.22168 33.75648,21.17848 33.88768,21.13528 L33.95488,21.11288 C34.17328,21.04088 34.39008,20.96648 34.60688,20.88888 C34.76448,20.83128 34.92288,20.77368 35.08048,20.71368 C35.29328,20.63208 35.50528,20.54568 35.71568,20.45848 L35.84608,20.40488 C35.95408,20.36088 36.06128,20.31688 36.16688,20.27048 C36.42688,20.15688 36.68448,20.03688 36.93968,19.91528 C37.13648,19.82088 37.33088,19.72408 37.52368,19.62568 C37.74368,19.51448 37.96288,19.40248 38.17968,19.28408 C38.31328,19.21208 38.44448,19.13608 38.57568,19.06088 L38.65488,19.01528 C38.82768,18.91608 39.00048,18.81608 39.17168,18.71208 C39.33568,18.61368 39.49728,18.51288 39.65888,18.41048 C39.82208,18.30728 39.98288,18.20088 40.14288,18.09448 L40.17728,18.07208 C40.32448,17.97288 40.47248,17.87448 40.61808,17.77288 C40.76368,17.67048 40.90848,17.56568 41.05328,17.45928 L41.25328,17.31288 C41.31968,17.26408 41.38608,17.21448 41.45248,17.16568 L39.03968,13.06648 Z" id="Fill-24" fill="#0469A3" mask="url(#mask-5)"></path>
                    </g>
                    <path d="M52.63184,25.43128 L52.63184,25.43128 C52.62144,25.28008 52.61024,25.12968 52.59744,24.97928 C52.54944,24.39608 52.49184,23.86728 52.41904,23.36568 L52.41344,23.31528 C52.41104,23.28808 52.40784,23.26088 52.40384,23.23368 C52.32544,22.70968 52.22224,22.15288 52.08864,21.53208 C52.06064,21.40168 52.03024,21.27208 51.99744,21.12968 C51.87664,20.60488 51.74464,20.09928 51.60624,19.62808 L51.58224,19.54488 C51.57504,19.51448 51.56624,19.48488 51.55744,19.45448 C51.40064,18.93528 51.21984,18.40248 51.00464,17.82488 C50.97744,17.75208 50.94864,17.68088 50.92064,17.60888 L50.88144,17.50968 C50.68544,17.00408 50.48144,16.51928 50.27424,16.06568 C50.26224,16.04248 50.25184,16.01768 50.24224,15.99368 C50.23024,15.96648 50.21824,15.94088 50.20704,15.91448 C49.97104,15.40808 49.70544,14.88488 49.41584,14.35928 C49.39104,14.31288 49.36464,14.26648 49.33824,14.22008 L49.30384,14.15928 C49.02784,13.66648 48.74544,13.19528 48.46304,12.75768 L48.43584,12.71448 C48.42224,12.69288 48.40944,12.67128 48.39504,12.65048 C48.06704,12.14728 47.72144,11.65368 47.36944,11.18568 L47.31424,11.11368 C46.96224,10.64888 46.59184,10.19208 46.21504,9.75688 L46.16864,9.70328 C45.36864,8.78408 44.49744,7.91448 43.56464,7.10408 C41.71424,5.50248 39.60944,4.14808 37.40864,3.13128 L37.35504,3.22328 L34.93344,7.41768 L34.93344,7.41848 C35.31184,7.58248 35.75584,7.79768 36.18704,8.01768 C36.25104,8.05048 36.31504,8.08408 36.37904,8.11768 L36.42544,8.14248 C36.84464,8.36408 37.25424,8.59768 37.64384,8.83688 C38.03664,9.07848 38.42864,9.33848 38.81024,9.60968 L39.03184,9.76968 C39.78224,10.31848 40.49984,10.91928 41.16704,11.55608 C41.23584,11.62168 41.30384,11.68808 41.37184,11.75528 C42.03504,12.40568 42.65824,13.10088 43.22384,13.82328 C43.28544,13.90168 43.34784,13.98088 43.40784,14.06088 C43.71584,14.46408 43.97984,14.83128 44.20384,15.16328 L44.21664,15.18648 C44.44784,15.53208 44.67984,15.90888 44.94704,16.37288 C44.98464,16.43848 45.02144,16.50488 45.05904,16.57128 L45.10304,16.64888 C45.35264,17.10008 45.56064,17.50008 45.74624,17.88728 C45.92544,18.26488 46.10144,18.67288 46.29904,19.17048 C46.34064,19.27448 46.38144,19.37928 46.41984,19.48328 C46.60384,19.96648 46.75264,20.39688 46.88224,20.81448 C47.00624,21.22008 47.12144,21.65448 47.24624,22.18248 C47.27264,22.29608 47.29824,22.40968 47.32304,22.52408 C47.43984,23.05448 47.52304,23.49848 47.58624,23.90808 L47.58864,23.93368 C47.65264,24.35368 47.70384,24.81128 47.75024,25.37208 C47.76064,25.49288 47.77024,25.61368 47.77824,25.73448 C47.81584,26.29688 47.83344,26.76488 47.83344,27.20728 C47.83344,27.56248 47.82384,27.92568 47.80624,28.28648 C47.79024,28.62328 47.76144,28.95528 47.73824,29.20648 L47.72944,29.33848 C47.66384,30.00808 47.56464,30.69048 47.43344,31.36888 L47.42704,31.40248 C47.10944,33.04008 46.59584,34.64648 45.90224,36.17768 C45.22224,37.67928 44.36544,39.10008 43.36064,40.40888 L40.82944,36.10968 L37.76784,30.91128 L29.47104,16.87928 L29.48544,16.85448 L29.52784,16.78088 L26.68384,21.70648 L26.65504,21.75688 L26.59824,21.85448 L32.19104,31.28648 L35.13904,36.29928 L37.35904,40.06888 L39.73584,44.10408 L39.83984,44.28088 L39.83984,44.28008 L42.25184,48.37928 L42.25344,48.38088 L42.34384,48.31208 C42.36704,48.29368 42.38864,48.27448 42.41264,48.25608 C43.65744,47.29528 44.81744,46.21928 45.86704,45.05608 L45.86864,45.05928 L45.95104,44.96568 C45.95344,44.96328 45.95664,44.96008 45.95984,44.95688 L46.00864,44.90248 L46.00704,44.90008 C46.82544,43.97848 47.58864,42.99048 48.28224,41.94328 C48.52064,41.58248 48.74464,41.22728 48.94944,40.88168 C49.80864,39.44008 50.53264,37.90808 51.10384,36.32808 L51.10624,36.32808 L51.12944,36.26168 L51.17824,36.12888 L51.17344,36.12888 C51.69424,34.65288 52.08784,33.10808 52.34304,31.53048 L52.34544,31.53048 L52.35824,31.44568 L52.37744,31.33048 L52.37424,31.33048 C52.46464,30.74648 52.53744,30.14168 52.59424,29.48168 C52.60224,29.38248 52.60944,29.28248 52.61664,29.17928 C52.67024,28.45368 52.69584,27.80888 52.69584,27.20728 C52.69584,26.68008 52.67584,26.11528 52.63184,25.43128" id="Fill-27" fill="#006933"></path>
                    <path d="M37.40064,3.14456 L37.39984,3.14616 C37.42704,3.15976 37.37744,3.12456 37.40544,3.13736 L37.40064,3.14456 Z" id="Fill-29" fill="#006933"></path>
                    <g id="Group-33" transform="translate(0.800000, 0.013600)">
                        <mask id="mask-7" fill="white">
                            <use xlink:href="#path-6"></use>
                        </mask>
                        <g id="Clip-32"></g>
                        <path d="M5.25728,31.27272 L5.25728,31.27272 L5.25248,31.27272 C5.24848,31.25032 5.24608,31.29512 5.24128,31.27272 C5.11888,30.61832 5.02448,29.92552 4.96448,29.29032 C4.96208,29.26152 4.95968,29.23192 4.95808,29.20232 L4.95168,29.12152 C4.92768,28.84952 4.90368,28.55672 4.88928,28.25912 C4.87168,27.89672 4.86288,27.53832 4.86288,27.19352 C4.86288,26.76072 4.87968,26.29912 4.91648,25.73912 C4.92448,25.61672 4.93328,25.49512 4.94368,25.37272 C4.98608,24.86392 5.03568,24.41752 5.09488,24.00952 L5.10288,23.94792 C5.16608,23.52392 5.25088,23.06872 5.36288,22.55352 C5.38688,22.44232 5.41248,22.33112 5.43808,22.22072 C5.54608,21.75592 5.65648,21.33832 5.77408,20.94232 L5.79728,20.85912 C5.92288,20.44552 6.07248,20.01032 6.25328,19.52872 C6.28048,19.45512 6.30928,19.38232 6.33808,19.30952 L6.36048,19.25032 C6.53328,18.80952 6.70288,18.41112 6.87888,18.03272 L6.90848,17.96472 C7.09728,17.56152 7.30848,17.14952 7.55408,16.70472 C7.58368,16.65192 7.61328,16.59912 7.64368,16.54632 L7.67408,16.49272 C7.91328,16.06952 8.14288,15.69112 8.37408,15.33672 L8.40048,15.29432 C8.65408,14.90872 8.92528,14.52472 9.23168,14.12072 L9.33968,13.97992 C9.64368,13.58472 9.93488,13.22952 10.23808,12.88392 C10.55088,12.52872 10.89088,12.16952 11.24688,11.81592 L11.32528,11.73992 C12.02768,11.05192 12.77968,10.40872 13.56128,9.83032 L13.60208,9.80152 C14.40768,9.20712 15.25968,8.66872 16.14368,8.19512 C16.58128,7.95992 17.03328,7.73912 17.48608,7.53672 L17.63968,7.53672 L17.60928,7.48552 C19.07488,6.84232 20.61648,6.36712 22.19568,6.07832 C22.50208,6.02312 22.80448,5.97352 23.09488,5.93432 L23.16608,5.92472 C23.48688,5.88152 23.75328,5.85032 24.00448,5.82712 C24.06128,5.82232 24.11888,5.81752 24.17648,5.81352 L24.42048,5.79512 C24.59568,5.78072 24.77168,5.76712 24.94848,5.75912 C25.29088,5.74152 25.62688,5.73272 25.94768,5.73272 C26.43328,5.73272 26.96048,5.75592 27.55888,5.80152 L27.62288,5.80632 C27.67328,5.81032 27.72368,5.81352 27.77488,5.81832 C28.26928,5.86152 28.75568,5.92632 29.23808,6.00232 L26.74208,10.32472 L23.75488,15.49832 L14.90448,31.27272 L14.78768,31.27272 L14.66208,31.27272 L14.54048,31.27272 L20.32768,31.31752 L20.34288,31.28952 L20.37088,31.24232 L25.79888,21.84072 L25.85568,21.74312 L25.88448,21.69272 L28.72768,16.76792 L28.68528,16.84072 L28.67088,16.86552 L29.29488,15.78472 L31.83168,11.39192 L34.13328,7.40552 L34.13328,7.40392 L36.55568,3.20952 L36.60848,3.11832 L36.61008,3.11432 L36.60528,3.12312 C36.57728,3.11112 36.62688,3.14552 36.59968,3.13272 C35.17488,2.48872 33.56368,1.90472 32.04928,1.53272 L32.05088,1.52952 L31.92128,1.49832 L31.84848,1.48152 L31.84768,1.48232 C31.42848,1.38232 30.98448,1.28952 30.52208,1.20472 L30.41808,1.18552 C30.01648,1.11432 29.59728,1.05112 29.13568,0.99272 L28.90448,0.96312 C28.54928,0.92152 28.17088,0.88712 27.71328,0.85512 L27.58768,0.84472 C27.52928,0.83992 27.47168,0.83512 27.41328,0.83112 C26.37248,0.77192 25.53008,0.77032 24.43888,0.83512 C24.35408,0.83992 24.26928,0.84712 24.18448,0.85432 L24.02368,0.86712 C23.61808,0.89752 23.25648,0.93192 22.91728,0.97272 C22.77808,0.98872 22.63968,1.00712 22.50128,1.02632 C22.11168,1.07912 21.72528,1.13992 21.35248,1.20792 L21.23168,1.23032 C21.17008,1.24072 21.10768,1.25192 21.04528,1.26392 C20.55408,1.35992 20.11248,1.45832 19.69328,1.56392 L19.69248,1.56312 L19.63248,1.57832 L19.47008,1.57832 L19.49248,1.61752 C17.99168,2.00872 16.51328,2.54392 15.09248,3.21112 L15.09088,3.20872 L15.00848,3.24872 C15.00768,3.24952 15.00608,3.25032 15.00448,3.25032 L14.91008,3.29512 L14.91168,3.29832 C13.86368,3.80072 12.83488,4.37992 11.85408,5.02712 L11.79648,5.06392 C10.81968,5.71272 9.87168,6.43992 8.98048,7.22472 L8.87808,7.31512 C8.01488,8.08232 7.19088,8.92072 6.42848,9.80552 L6.29728,9.95912 C5.55568,10.83432 4.86288,11.76712 4.23968,12.73352 L4.10208,12.95192 C3.81648,13.40552 3.54768,13.85992 3.30288,14.30392 L3.22048,14.44952 C2.95808,14.93272 2.70128,15.44632 2.45648,15.97592 C2.43088,16.02952 2.40768,16.08392 2.38448,16.13752 L2.33888,16.23912 C2.14208,16.67672 1.95328,17.13272 1.77568,17.59352 L1.73088,17.70872 C1.70768,17.76952 1.68368,17.83032 1.66048,17.89112 C1.46208,18.42712 1.28208,18.96632 1.12368,19.49432 C1.10848,19.54552 1.09408,19.59672 1.08048,19.64872 L1.04768,19.76552 C0.91808,20.21752 0.79568,20.69032 0.68688,21.16952 L0.67408,21.22472 C0.64688,21.33912 0.62048,21.45432 0.59568,21.57032 C0.46688,22.17272 0.36688,22.72072 0.29008,23.24712 C0.28448,23.28392 0.27968,23.32232 0.27488,23.35992 L0.26288,23.45672 C0.19648,23.93672 0.14048,24.44952 0.09728,24.98072 C0.08528,25.13272 0.07328,25.28552 0.06368,25.43832 C0.02048,26.10632 -0.00032,26.66472 -0.00032,27.19352 C-0.00032,27.76872 0.02368,28.39112 0.07408,29.09592 C0.08288,29.21512 0.09088,29.33432 0.10128,29.45352 C0.15488,30.09592 0.22288,30.72312 0.30528,31.27272 C0.31088,31.31032 0.31488,31.23592 0.32048,31.27272 L0.33328,31.27272 L0.33568,31.27272 L5.25728,31.27272 Z" id="Fill-31" fill="#F0A800" mask="url(#mask-7)"></path>
                    </g>
                </g>
            </g>
            <g id="text" transform="translate(69.000000, 8.000000)" fill="#FFFFFF" fill-rule="nonzero">
                <path d="M23.408,6.86 L15.848,6.86 C15.624,5.488 14.588,4.536 11.508,4.536 C9.268,4.536 8.036,5.18 8.036,6.496 C8.036,7.14 8.54,7.56 9.52,7.728 C11.172,8.036 16.324,8.792 18.284,9.1 C22.008,9.744 24.248,11.284 24.248,14.784 C24.248,21.56 15.456,21.616 12.712,21.616 C5.936,21.616 1.008,20.412 0.644,14.84 L8.54,14.84 C8.68,16.352 9.576,17.304 13.02,17.304 C14.7,17.304 16.52,16.912 16.52,15.204 C16.52,14.168 15.68,13.776 13.356,13.412 L6.692,12.404 C2.576,11.816 0.98,9.744 0.98,6.748 C0.98,4.144 2.604,0.392 11.368,0.392 C18.648,0.392 22.96,2.156 23.408,6.86 Z M37.62,10.584 L31.684,10.584 C32.216,6.076 36.556,5.432 41.176,5.432 C46.692,5.432 50.836,6.328 50.836,10.584 L50.836,18.256 C50.836,19.544 51.004,20.104 51.452,21 L45.516,21 C45.32,20.552 45.236,20.02 45.208,19.6 C43.5,21.252 41.092,21.616 38.068,21.616 C33.168,21.616 30.648,20.048 30.648,16.884 C30.648,13.44 32.944,12.236 37.2,11.928 L43.108,11.536 C44.648,11.424 44.9,11.088 44.9,10.304 C44.9,9.212 43.752,8.68 41.148,8.68 C38.936,8.68 37.928,9.268 37.62,10.584 Z M45.068,14.84 L45.068,13.916 C44.592,14.056 43.836,14.196 42.8,14.336 L38.796,14.812 C37.592,14.952 37.088,15.428 37.088,16.352 C37.088,17.556 38.152,18.2 39.748,18.2 C43.192,18.2 45.068,16.94 45.068,14.84 Z M59.364,21 L59.364,0.504 L65.3,0.504 L65.3,21 L59.364,21 Z M78.98,11.732 L87.772,11.732 C87.38,10.052 86.204,8.624 83.376,8.624 C80.576,8.624 79.288,10.052 78.98,11.732 Z M87.324,16.492 L93.596,16.492 C92.868,19.012 89.984,21.616 83.516,21.616 C76.684,21.616 72.876,19.012 72.876,13.384 C72.876,8.008 77.076,5.208 83.348,5.208 C89.844,5.208 93.876,8.036 93.876,14.364 L93.876,14.812 L78.98,14.812 C79.288,16.772 80.688,18.2 83.74,18.2 C85.644,18.2 86.624,17.388 87.324,16.492 Z M100.528,16.268 L107.416,16.268 C107.5,16.828 107.724,17.248 108.256,17.556 C108.788,17.864 109.572,18.032 110.888,18.032 C112.204,18.032 113.604,17.78 113.604,16.688 C113.604,15.876 113.016,15.68 111.56,15.484 L106.268,14.84 C102.768,14.42 101.032,13.188 101.032,10.612 C101.032,6.496 104.56,5.208 110.244,5.208 C114.304,5.208 119.344,5.936 119.708,10.248 L113.044,10.248 C112.96,9.604 112.568,9.184 111.98,8.96 C111.392,8.708 110.608,8.624 109.852,8.624 C108.144,8.624 107.136,9.016 107.136,10.052 C107.136,10.528 107.5,10.92 109.04,11.116 L114.164,11.676 C118.28,12.124 120.268,13.356 120.268,16.352 C120.268,19.964 116.908,21.616 110.552,21.616 C106.352,21.616 100.668,20.86 100.528,16.268 Z" id="Sales"></path>
                <path d="M14.974,32.35 L12.22,32.35 C11.948,30.531 10.469,29.426 8.31,29.426 C5.947,29.426 4.213,30.99 4.213,34.152 C4.213,36.685 5.964,38.436 8.48,38.436 C11.132,38.436 11.999,36.651 12.22,35.359 L14.974,35.359 C14.617,37.756 13.019,40.34 8.038,40.34 C3.635,40.34 1.561,37.348 1.561,33.931 C1.561,30.514 3.584,27.522 8.344,27.522 C12.526,27.522 14.702,29.715 14.974,32.35 Z M21.3310002,40 L21.3310002,27.862 L31.8710002,27.862 L31.8710002,29.766 L23.8810002,29.766 L23.8810002,32.826 L31.5480002,32.826 L31.5480002,34.73 L23.8810002,34.73 L23.8810002,38.096 L32.0070002,38.096 L32.0070002,40 L21.3310002,40 Z M38.2280004,40 L38.2280004,27.862 L41.1520004,27.862 L48.3770004,36.974 L48.4110004,36.974 L48.4110004,27.862 L50.8590004,27.862 L50.8590004,40 L47.9860004,40 L40.7100004,30.888 L40.6760004,30.888 L40.6760004,40 L38.2280004,40 Z M60.9560006,40 L60.9560006,29.766 L56.4000006,29.766 L56.4000006,27.862 L68.0620006,27.862 L68.0620006,29.766 L63.5060006,29.766 L63.5060006,40 L60.9560006,40 Z M76.1530008,33.302 L80.5560008,33.302 C81.9840008,33.302 82.7320008,32.877 82.7320008,31.517 C82.7320008,30.242 81.9160008,29.766 80.5560008,29.766 L76.1530008,29.766 L76.1530008,33.302 Z M73.6030008,40 L73.6030008,27.862 L81.2870008,27.862 C84.3810008,27.862 85.3840008,29.256 85.3840008,31.16 C85.3840008,32.741 84.5340008,33.727 83.3780008,34.084 L83.3780008,34.118 C84.8060008,34.424 85.1460008,35.665 85.1460008,37.399 C85.1460008,37.994 85.1630008,39.32 85.6560008,40 L82.9020008,40 C82.7150008,39.66 82.5960008,39.048 82.5960008,38.164 C82.5960008,36.447 82.3410008,35.206 80.4880008,35.206 L76.1530008,35.206 L76.1530008,40 L73.6030008,40 Z M90.364001,40 L95.770001,27.862 L98.796001,27.862 L104.202001,40 L101.363001,40 L100.088001,36.991 L94.376001,36.991 L93.118001,40 L90.364001,40 Z M95.141001,35.087 L99.323001,35.087 L97.249001,29.97 L95.141001,35.087 Z M109.590001,40 L109.590001,27.862 L112.140001,27.862 L112.140001,37.994 L119.518001,37.994 L119.518001,40 L109.590001,40 Z" id="CENTRAL" fill-opacity="0.700284091"></path>
            </g>
        </g>
    </g>
</svg>